<svg width="20" height="20" viewBox="0 0 20 20" fill="none" xmlns="http://www.w3.org/2000/svg">
<path d="M13.7566 0.625H5.50659C4.11421 0.625 2.77885 1.17812 1.79428 2.16269C0.809715 3.14726 0.256592 4.48261 0.256592 5.875V14.125C0.256592 15.5174 0.809715 16.8527 1.79428 17.8373C2.77885 18.8219 4.11421 19.375 5.50659 19.375H13.7566C15.149 19.375 16.4843 18.8219 17.4689 17.8373C18.4535 16.8527 19.0066 15.5174 19.0066 14.125V5.875C19.0066 4.48261 18.4535 3.14726 17.4689 2.16269C16.4843 1.17812 15.149 0.625 13.7566 0.625ZM9.63159 14.5C8.74158 14.5 7.87155 14.2361 7.13153 13.7416C6.3915 13.2471 5.81473 12.5443 5.47413 11.7221C5.13354 10.8998 5.04443 9.99501 5.21806 9.12209C5.39169 8.24918 5.82028 7.44736 6.44961 6.81802C7.07895 6.18868 7.88077 5.7601 8.75368 5.58647C9.6266 5.41283 10.5314 5.50195 11.3537 5.84254C12.1759 6.18314 12.8787 6.75991 13.3732 7.49993C13.8677 8.23995 14.1316 9.10998 14.1316 10C14.1316 11.1935 13.6575 12.3381 12.8136 13.182C11.9697 14.0259 10.8251 14.5 9.63159 14.5ZM14.5066 6.25C14.2841 6.25 14.0666 6.18402 13.8816 6.0604C13.6966 5.93679 13.5524 5.76109 13.4672 5.55552C13.3821 5.34995 13.3598 5.12375 13.4032 4.90552C13.4466 4.68729 13.5538 4.48684 13.7111 4.3295C13.8684 4.17217 14.0689 4.06502 14.2871 4.02162C14.5053 3.97821 14.7315 4.00049 14.9371 4.08564C15.1427 4.17078 15.3184 4.31498 15.442 4.49998C15.5656 4.68499 15.6316 4.9025 15.6316 5.125C15.6316 5.42337 15.5131 5.70952 15.3021 5.9205C15.0911 6.13147 14.805 6.25 14.5066 6.25Z" fill="white"/>
</svg>
