<svg width="18" height="18" viewBox="0 0 18 18" fill="none" xmlns="http://www.w3.org/2000/svg">
<path d="M10.0984 4.99999C12.2014 4.99999 13.0984 5.89699 13.0984 7.99999H15.0984C15.0984 4.77499 13.3234 2.99999 10.0984 2.99999V4.99999ZM13.5204 10.443C13.3283 10.2683 13.0758 10.1752 12.8162 10.1832C12.5567 10.1912 12.3104 10.2998 12.1294 10.486L9.73643 12.947C9.16043 12.837 8.00243 12.476 6.81043 11.287C5.61843 10.094 5.25743 8.93299 5.15043 8.361L7.60943 5.96699C7.79584 5.78612 7.90456 5.53982 7.91259 5.2802C7.92061 5.02059 7.82731 4.76804 7.65243 4.57599L3.95743 0.512995C3.78247 0.320352 3.53931 0.203499 3.27958 0.187255C3.01985 0.17101 2.76402 0.256653 2.56643 0.425995L0.396427 2.28699C0.223538 2.46051 0.120346 2.69145 0.106426 2.93599C0.0914265 3.18599 -0.194573 9.108 4.39743 13.702C8.40343 17.707 13.4214 18 14.8034 18C15.0054 18 15.1294 17.994 15.1624 17.992C15.4069 17.9783 15.6378 17.8747 15.8104 17.701L17.6704 15.53C17.8399 15.3325 17.9257 15.0768 17.9096 14.817C17.8936 14.5573 17.7769 14.3141 17.5844 14.139L13.5204 10.443Z" fill="white"/>
</svg>
